<?xml version="1.0" encoding="UTF-8"?>
<svg width="88px" height="88px" viewBox="0 0 88 88" version="1.1" xmlns="http://www.w3.org/2000/svg" xmlns:xlink="http://www.w3.org/1999/xlink">
    <!-- Generator: Sketch 63.1 (92452) - https://sketch.com -->
    <title>+</title>
    <desc>Created with Sketch.</desc>
    <defs>
        <linearGradient x1="11.9789043%" y1="19.745624%" x2="81.9706389%" y2="82.0920845%" id="linearGradient-1">
            <stop stop-color="#48C064" offset="0%"></stop>
            <stop stop-color="#6FCD53" offset="100%"></stop>
        </linearGradient>
    </defs>
    <g id="手机端20220622✅" stroke="none" stroke-width="1" fill="none" fill-rule="evenodd">
        <g id="圈子" transform="translate(-626.000000, -1253.000000)">
            <g id="+-2" transform="translate(626.000000, 1253.000000)">
                <g id="+">
                    <circle id="椭圆形" fill="url(#linearGradient-1)" cx="44" cy="44" r="44"></circle>
                    <path d="M60.6300538,40.4238887 L48.2260237,40.4238887 L48.2502603,28.3886903 C48.2502603,28.3784172 48.2477062,28.370767 48.2477062,28.3607124 L48.2477062,28.1639382 L48.2260237,28.1639382 C48.0940266,26.4097454 46.2382966,25.0103584 44.4656014,25 C42.6931236,24.987517 40.856522,26.3664124 40.7484898,28.1180369 L40.7257747,28.1180369 L40.7283288,40.4213204 L28.3240814,40.4213204 C26.4755789,40.4087522 24.9873648,42.3206485 25,44.1795945 C25.0115471,46.0385951 26.5212263,47.8832788 28.3699462,47.8960656 L40.7295787,47.8858471 L40.7321328,60.6113675 C40.743599,62.4703135 42.6336733,63.9896995 44.4821757,64 C46.3308413,64.0127594 48.1992874,62.5164333 48.1867887,60.6574327 L48.2120578,47.8781423 L60.6759186,47.8679238 C62.5245841,47.8807106 64.0126352,46.0562998 64,44.1947856 C63.987203,42.3360036 62.478828,40.4366754 60.6300538,40.4238887 L60.6300538,40.4238887 Z" id="Shape" fill="#FFFFFF" fill-rule="nonzero"></path>
                </g>
            </g>
        </g>
    </g>
</svg>